<?xml version="1.0" encoding="UTF-8"?>
<svg id="_图层_1" data-name="图层 1" xmlns="http://www.w3.org/2000/svg" xmlns:xlink="http://www.w3.org/1999/xlink" viewBox="0 0 305.39 311.1">
  <defs>
    <style>
      .cls-1 {
        fill: #344e67;
      }

      .cls-2 {
        fill: #314e69;
      }

      .cls-3 {
        fill: #94bfd4;
      }

      .cls-4 {
        fill: #c4ca94;
      }

      .cls-5 {
        fill: #f2dc90;
      }

      .cls-6 {
        fill: #ebfbf7;
      }

      .cls-7 {
        fill: #99bfb8;
      }

      .cls-8 {
        fill: #b1dbbf;
      }

      .cls-9 {
        fill: #324b65;
      }

      .cls-10 {
        fill: #f5f2c7;
      }

      .cls-11 {
        fill: #8cb3c8;
      }

      .cls-12 {
        fill: #304c69;
      }

      .cls-13 {
        fill: #b6dcbe;
      }

      .cls-14 {
        fill: #b8dec7;
      }

      .cls-15 {
        fill: #e5f9fa;
      }

      .cls-16 {
        fill: #91bcba;
      }

      .cls-17 {
        fill: #8db7cc;
      }

      .cls-18 {
        fill: #f4f0c3;
      }

      .cls-19 {
        fill: #96bec0;
      }

      .cls-20 {
        fill: #f1dd92;
      }

      .cls-21 {
        fill: #ddf3d8;
      }

      .cls-22 {
        fill: #cac792;
      }

      .cls-23 {
        fill: #91bcc7;
      }

      .cls-24 {
        fill: #8fbdc4;
      }

      .cls-25 {
        fill: #f8f9fa;
      }

      .cls-26 {
        fill: #c8ca95;
      }

      .cls-27 {
        fill: #f4dc91;
      }

      .cls-28 {
        fill: #c7e8d1;
      }

      .cls-29 {
        fill: #f5f3c7;
      }

      .cls-30 {
        fill: #abd6bc;
      }

      .cls-31 {
        fill: #8db8cb;
      }

      .cls-32 {
        fill: #c9c692;
      }

      .cls-33 {
        fill: #304c67;
      }

      .cls-34 {
        fill: #314e67;
      }

      .cls-35 {
        fill: #f5f2c5;
      }

      .cls-36 {
        fill: #d4eff4;
      }

      .cls-37 {
        fill: #f5dd91;
      }

      .cls-38 {
        fill: #f1de92;
      }

      .cls-39 {
        fill: #90bfba;
      }

      .cls-40 {
        fill: #5b7982;
      }

      .cls-41 {
        fill: #90c1b9;
      }

      .cls-42 {
        fill: #b1dad7;
      }

      .cls-43 {
        fill: #91bec1;
      }

      .cls-44 {
        fill: #b7dbbb;
      }

      .cls-45 {
        fill: #8ec2b8;
      }

      .cls-46 {
        fill: #d9f3f3;
      }

      .cls-47 {
        fill: #88adae;
      }

      .cls-48 {
        fill: #b2dbc6;
      }

      .cls-49 {
        fill: #dff9f8;
      }

      .cls-50 {
        fill: #f4f1c8;
      }

      .cls-51 {
        fill: url(#_未命名的渐变_25);
      }

      .cls-52 {
        fill: #324c65;
      }

      .cls-53 {
        fill: #b6cea3;
      }
    </style>
    <linearGradient id="_未命名的渐变_25" data-name="未命名的渐变 25" x1="-33.36" y1="741.91" x2="154.29" y2="866.06" gradientTransform="translate(68.38 -468.21) scale(.75)" gradientUnits="userSpaceOnUse">
      <stop offset="0" stop-color="#afd5e9"/>
      <stop offset="1" stop-color="#b3debe"/>
    </linearGradient>
  </defs>
  <path class="cls-9" d="M298.15,152.37c-5.36-.25-5.9,3.6-9.35,4.93-4.13,1.59-9.58,1.57-14.26,3.73-1.88.87-7.39,5.46-7.87,5.46-1.44.01-7.31-6.87-9.38-7.71,10.13-.26,19.51-2.27,27.98-8,3-2.03,6.57-6.41,8.82-7.67,2.4-1.35,5.88-.9,7.11-4.88,3.93-12.69-12.69-14.64-15.08-6.82-1.35,4.4.81,4.38-3.72,8.26-4.01,3.43-12.02,6.92-17.23,7.5-3.88.44-8.41-.32-12.38,0,7.73-5.61,15.37-26.32,23.28-29.53,3.36-1.36,6.81.07,9.6-3.89,5.59-7.93-4.38-17.09-11.52-11.5-2.27,1.78-2.46,4.5-4.1,6.39-1.87,2.15-5.6,4.45-7.9,7.09-2.15,2.47-3.73,5.79-5.99,8.24-.81-3.12-2.37-7.01-2.58-10.21-.28-4.11,2.09-5.63-1.21-9.95-6.48-8.47-18.94,1.8-12.35,10.08,2.16,2.72,3.36,1.13,4.18,6.3,2.1,13.17-2.56,25.38-17.81,24.57-15.4-.81-14.77-13.46-19.46-24.05-13.06-29.46-44.91-45.96-76.67-43.05-7.71.7-16.5,5.45-23.37,5.18-10.36-.41-16.25-13.41-12.72-22.49,3.55-9.12,15.84-9.19,21.68-17.29,2.35-3.26,5.52-9.95.43-12.28-7.93-3.63-7.46,9.91-14.99,10.09-.47-3.94-.26-12.46-5.62-12.79-8.03-.49-4.87,7.5-4.96,11.59-.1,4.73-4.68,11.87-7.06,16.2-.32.58-.19,2.09-1.48,1.47-2.09-1-5.99-12.02-6.3-14.67-.9-7.61,1.57-11.59,2.11-17.98.69-8.25-7.1-9.42-10.07-2.53-5.38,12.5-2.52,29.37,3.37,41.17-8.09-1.77-18.19-1.78-24.39-8.21-3.35-3.47-3.66-10.06-10.32-8.1-6.95,2.05.32,12.93,3.23,15.92,1.8,1.86,4.32,3.34,6.51,4.73,1.88,1.19,5.74,1.57,3.02,3.33-4.7,3.03-14.08-1.61-14.08,6.18,0,7.52,11.67,5.78,16.31,4.26,6.09-1.99,9.9-7.4,17.01-6.82,11.26.91,18.81,12.56,16.81,23.36-4.28,6.94-9.97,12.6-13.73,19.98-6.17,12.08-5.04,30.23-23.12,29.14-6.44-.39-12.68-4.67-14.54-10.98-1.81-6.15-.11-11.66-2.63-18.34-1.66-4.42-4.65-10.04-10.31-7.64-6.77,2.87,3.67,13.28,1.48,18.32-4.24-3.17-18.79-7.81-19.55.36-.67,7.17,8.63,5.26,13.82,7.99,4.55,2.4,7.38,7.76,10.24,11.85-6.31-.13-26.42,4.92-26.02,12.99.12,2.52,2.79,4.86,5.27,4.79,2.71-.08,7.77-4.47,11.72-5.46,1.77-.44,6.11-1.11,7.89-1.12.92,0,2.45-.36,1.88,1.14-.35.93-5.04,7.14-6.02,8.22-2.69,2.97-6.93,6.03-10.81,7.18-3.91,1.16-10.34.08-10.91,5.64-1.08,10.52,17.98,3.57,22.49.3,1.67,5.56-8.92,14.93-1.48,18.33,5.69,2.6,8.83-4.27,10.31-8.4,2.95-8.24-.03-17.91,6.15-24.56,7.41-7.98,22.93-7.09,27.7,3.11.71,1.51,5.81,15.63,5.88,16.5.33,3.77-5.36,16.37-5.09,23.86.72,19.68,18.01,25.62,34.52,18.68,2.24-.94,9.55-6,10.14-6.05,1.05-.1,8.09,3.02,9.33,3.87,5.17,3.56,10,16.39,9.83,22.45-.05,1.88-1.72,3.35-2.11,5.37-1.8,9.36,10.73,36.97,21.29,37.61,2.1.13,3.25-1.31,5.19-.05,2.43,1.58,1.63,5.03,3.03,7.49,3.17,5.57,24.51,11.6,30.52,10.36,3.65-.75,5.92-4.98,6.32-5.08,4.35-1.09,6.8,4.84,13.31,4.53,5.16-.24,23.33-7.13,26.25-11.28,2.07-2.94,1.27-7.2,3-9,1.78-1.87,5.38-.3,8.54-1.2,6.51-1.87,20.05-23.46,21.08-29.85.85-5.3-3.22-10.16-1.45-13.25.49-.86,6.44-2.67,8.41-6.76,2.59-5.37,5-30.6,4.26-36.75-.86-7.06-5.62-7.75-6.51-10.71-.39-1.3.03-7.96.6-8.46.78-.68,6.88,3.67,7.54,4.82,1.01,1.78.48,3.29,1.06,4.93,3.86,11.02,18.1,2.92,12.74-5.23-.76-1.16-4.44-2.79-3.35-3.77.64-.57,6.25.36,6.76-4.94.9-9.56-14.81-2.44-19.5-5.91,3.42-2.4,11.54-5.23,15.57-5.45,3.1-.17,4.1,2.23,8.11.64,7.59-3.02,6.08-15.43-2.31-15.82ZM203.66,191.37c2.29,1.25,8.13,5.46,8.53,7.98.65,4.09-17.16,6.3-20.14,7.72l11.61-15.7ZM254.39,195.57c-3.84,5.3-1.89,13.86-2.36,20.1-.52,6.88-4.62,16.74-1.87,22.85,1.06,2.35,4.36,3.69,1.08,5.56-1.09.62-2.68.54-3.98,1.27-4.09,2.3-8.03,13.56-11.1,18.11-3.99,5.91-9.22,8.19-7.38,16.97-6.61-4-10.25.42-15.77,2.59-6.02,2.37-15.63,3.22-17.23,10.13-.65.51-2.73-3.21-3.36-3.75-2.87-2.47-11.34-3.48-15.55-4.69-4.81-1.38-7.96-4.74-14.08-2.04,1.48-6.87-3.54-9.93-6.41-14.94-2.76-4.83-3.24-9.36-5.21-14.26-.66-1.65-2.29-2.47-2.62-4.12-.61-3.07.63-8.73,1.69-11.76,4.2-12.08,12.73-12.31,23.04-17.04-2.69,11.09,10.45,21.51,20.22,15.31,3.13-1.99,4.74-5.06,3.63-8.8-.49-1.65-3.09-2.21-2.84-4.26,10.08-2.23,23.61-3.23,30.39-11.97,6.72-8.66,3.75-18.64-3.01-26.23-2.03-2.27-10.76-8.11-10.91-9.34-.13-1.05.77-3.67,1.17-4.85,6.04-17.68,34.01-9.78,42.35,2.22-4.78.12-5.87-4.13-10.86-3.78-5.39.38-7.33,6.47-4.56,10.57,3.72,5.51,11.96-.59,17.08,7.66,3.98,6.41,1.04,4.92-1.55,8.49Z"/>
  <path class="cls-1" d="M208.81,77.49c9.88-2.05,17.43,7.13,13.63,16.59-4.59,11.45-24.66,7.51-22.38-7.36.55-3.59,5.2-8.49,8.74-9.23Z"/>
  <path class="cls-14" d="M216.52,83.31c3.53,6.1-7.46,14.43-12,8.23-2.71-7.67,5.94-12.9,12-8.23Z"/>
  <path class="cls-19" d="M204.52,91.54c6.6,2.5,11.25-1.79,12-8.23,10.19,7.85-7.45,21.12-12,8.23Z"/>
  <path class="cls-45" d="M224.77,148.43c-.6.5-1.1,1-1.5,1.5,2.65,1.58,6.2,2.08,10.65,1.48,6.01-1.42,28.2,15.61,28.53,18.89.04.43-.05.88-.18,1.34-.32.6-1.53,3.48-2.24,2.99-7.68-17.26-43.01-28.29-51.78-7.13-.67,1.62-1.28,6.13-1.49,6.38-.18.22-4.7-2.16-5.24.39-.28,1.33,8.64,6.49,10.5,7.85,2.04,2.01,2.51,8.51.75,10.48-3.28-1.56-6-4.49-9.24-6.13-2.48-1.25-7.56-4.24-7.26.89-.63,1.63-10.95.65-11.39.26l-.61-1.75c15.95-19.78,18.96-45.93,9.89-69.38-1.32-3.41-4.81-8.38-5.6-10.96-.45-1.48.2-1.67.96-2.74,11.99,12.31,12.08,19.51,18.16,33.9,3.09,7.32,9.73,10.28,17.09,11.76Z"/>
  <path class="cls-31" d="M152.02,176.87c4.41,10.09-8.18,12.47-8.29,13.91-.13,1.65,2.6,6.03,2.26,9.58s-3.24,6.05-5.22,8.69c1.24.09,2.52-.1,3.75,0,5.94-.79,11.73-2.23,17.39-4.32,4.53,1.21,1.8,8.59-3.05,7.95l7.53,3.58.63,1.76c-10.29,4.94-16.57,5.59-20.83,17.76-.79,2.24-1.91,10.78-2.37,11.11-1.47,1.03-7.76-.3-10.12,1.11-2.42-9.4-4.3-19.63-13.42-24.87-1.37-.79-5.55-1.9-5.76-2.12-1.08-1.13,1.88-2.19,2.65-2.94,1.44-1.41,6.64-7.63,7.31-8.06,1.37-.89,8.23-1.36,11.25-2.62,3.69-1.54,7.72-5.02,8.08-9.19.25-2.86-1.89-9.6-1.46-11.11.58-2.06,12.01-4.25,9.67-10.22Z"/>
  <path class="cls-13" d="M248.02,131.96c.98-4.67.79-13.92-1.91-17.93-1.19-1.76-3.68-1.74-4.1-4.18-.93-5.45,5.62-7.77,7.6-2.99.91,2.2-.81,3.57-.68,5.83.2,3.59,2.79,8.83,2.86,12.95.03,1.88-2.38,7.88,1.1,7.85,2.31-.02,10.74-14.48,13.48-17.27,1.91-1.94,6-4.05,7.17-5.57,1.8-2.34.75-6.64,5.54-6.37,3.55.2,5.27,4.64,2.72,7.13-1.81,1.78-3.52.68-5.49,1.25-8.73,2.52-15.84,18.74-21.57,25.63-2.52,3.03-5.86,5.33-8.49,7.99-3.82,3.87,3.2,4.15,5.9,4.37,11.42.93,27.95-1.25,35.25-11.2,2.26-3.08,1.34-3.75,2.19-6.81,1.06-3.82,9.59-3.1,7.78,3.26-.86,3.01-4.02,2.33-5.84,3.2s-2.98,3.77-4.59,5.15c-6.58,5.67-15.81,9.23-24.42,10.06-3.34.32-15.5-1.72-12.32,3.5,1.88,3.08,11.56,7.97,13.21,11.56.36.78-.83,1.6-1.18,2.25-6.64-7.99-15.92-15.73-26.24-18.34-3.66-.92-9.44-.76-12.22-1.87-.98-.39-.39-1.31-.53-1.49l.79-.67c11.26,1.44,24.36-4.78,23.96-17.29Z"/>
  <path class="cls-24" d="M196.27,187.35c1.54.56,3.31,1.32,2.7,3.04-1.73,4.88-13.07,15.92-17.46,19.29-4.7,3.61-9.26,5.85-14.5,8.36-4.75-1.3-8.53-4.66-13.5-5.25,3.23-3.53,10.08,1.32,9-6.73-7.05,1.17-10.38,3.65-18,2.99,7.63-2.03,15.09-4.43,21.98-8.38,5.68-3.25,13.68-9.75,17.77-14.82,3.94,1.45,8.04.05,12,1.5Z"/>
  <path class="cls-30" d="M212.02,182.11c.72.52,1.74.77,2.61,1.49,12.55,10.51,14.05,24.3-2.97,30.71-4.63,1.75-18.4,3.37-20.62,4.87-1.51,1.03-1.21,3.7-2.24,5.25-.55.83-8.07,5.69-1.16,5.65,1.29,0,8.87-5.52,4.9.89-3.75,6.04-20.87-.25-14.43-12.72,5.52-10.68,35.21-7.77,37.46-17.26,1.08-4.52-1.81-5.23-2.81-8.42-.93-2.97-.68-7.34-.75-10.48Z"/>
  <path class="cls-17" d="M107.02,204.57c-2.02,1.96-6.96,7.45-9.95,6.63-3.57-.98-13.98-14.15-15.17-14.16-3.31-.03-2.44,7.89-4.13,9.78l-1.02-.04c-1.52-2.34-3.43-4.32-5.73-5.95.62-3.52,4.26-11.69,4.19-13.85-.04-1.14-7.43-19.97-8.36-21.28-7.65-10.7-26.53-9.51-34.08.7-1.94.83-2.28-.14-.75-1.5.11-.1.4-1.65,1.45-2.65,7.81-7.4,19.47-9.2,29.23-4.39,10.27,5.07,9.93,13.83,15.2,22.26,6.86,10.98,17.84,18.61,29.13,24.45Z"/>
  <path class="cls-48" d="M135.52,186.6c-1.45,2.47-.68,3.08,1.82,4.2,3.08,10.75-6.65,12.97-15.06,13.41-1.58,1.45-2.92,1.82-4.01,1.1-1.66,1.47-4.37-.03-3.75-2.25.84-.97,2.55-2.9,2.66-4.08.18-1.92-.19-9.1-.48-11.2-.31-2.27-6.4-11.98.62-8.86,3.28,1.46,3.64,7.61,6.55,7.65s13.52-7.62,17.13-9.11c1.79-.74,7.35-2.94,7.29.53-.04,2.25-10.36,6.31-12.78,8.59Z"/>
  <path class="cls-27" d="M260.77,195.59c1.9-.75,5.45-.6,6.97.84,2.72,2.6-.69,35.5-2.46,40.36-.84,4.01-4.21,3.61-7.51,2.96-.18.65-.43.63-.75,0-1.81-.91-4.05-3.08-3.75-5.24,2.33-3.6,3.56-6.91,3.81-11.51l1.03-9.23c.98-5.07.37-9.39-1.84-12.95.42-3.05,1.86-4.19,4.5-5.24Z"/>
  <path class="cls-42" d="M77.77,206.81c.24,1.35-.15,3.03.18,4.68,4.18,20.49,29.56-.33,36.57-8.42l3.75,2.25-.17,2.21c-10.73,13.43-35.49,29.51-47.08,9.02-1.33-5.24-.92-10.5,0-15.72,3.47-.54,6.2,2.91,6.75,5.99Z"/>
  <path class="cls-44" d="M266.77,191.09c-.94,2.05-4.14,3.03-5.25.75-1.68-7.05-5.16-12.34-12.72-13.88-2.37-.48-10.77.41-6.85-4.52,2.45-3.08,4.46.58,6.27,1.36,2.69,1.15,5.41,1.35,8.15,3.09,1.64,1.04,4.76,5.15,5.51,4.97.98-.23,2.9-7.35,3.73-9.01,2.78-5.51,8.23-8.87,13.94-10.79,2.54-.86,12.65-2.34,13.3-2.81.5-.37.59-2,1.31-2.8,3.94-4.44,10.4,2.48,5.6,6.31-3.07,2.44-4.43-.44-7.74-.31-3.78.15-12.83,2.9-16.05,5.01-9.61,6.28-8.2,12.9-9.19,22.64Z"/>
  <path class="cls-23" d="M135.52,186.6c-.79,4.6,1.41,2.22,3.02,3.34,1.47,1.01-.01,2.57.19,3.68.62,3.34,2.73,3.25-.58,7.23-4.36,5.24-10.81,3.15-15.33,5.66-2.89,1.6-7.87,8.16-10.96,10.77-11.24,9.51-35.47,20.44-40.85-.73,7.5,9.19,16.22,9.93,26.91,5.52,8.48-3.5,13.86-10.83,20.34-16.75,4.35-3.97,3.88-2.11,8.55-3.07,5.92-1.21,10.92-2.67,9.44-10.02-.58-2.86-4.13-2.41-.73-5.62Z"/>
  <path class="cls-37" d="M146.77,253.97c-1.32,6.59,4.7,21.23,10.14,24.37.25.15.68-.11,1.11-.42.69,2.35.81,4.51-.75,6.74,1.77,1.93-2.21,4.05-3.75,2.25-.8.15-1.72.29-2.47-.13-7.13-3.9-17.03-24.93-16.17-33.01l1.4-2.05c3.83-1.15,8.14-1.78,10.5,2.25Z"/>
  <path class="cls-38" d="M254.77,247.98c1.28-2.18,3.71-.99,3.75,1.5-.09.21.09.54,0,.75.41.81.66,1.69.53,2.6-.35,2.54-4.58,10.43-6.11,13.21-2.32,4.23-10.15,17.23-14.55,17.55-.84.06-1.96-.43-2.37-1.17-2.2.67-3.03.05-3-2.25.07-.43.04-1.05,0-1.5-.26-1.29.1-2.54,1.08-3.75l7.94-9.86c4.42-4.79,5.91-9.24,4.48-13.34,2.25-3.59,3.99-4.21,8.25-3.74Z"/>
  <path class="cls-26" d="M262.27,194.84c-.1-2.33,3.45-2.28,3.75,0,2.83.38,5.91,1.97,6.59,5.02.74,3.31.43,13.27.19,17.09-.27,4.32-2.27,20.04-5.3,22.43-1.04.82-2.13.71-2.98,1.12-4.09,1.89-6.34,1.64-6.75-.75,2.04-.07,3.96.68,5.13-1.24,2.95-4.84,3.74-22.27,3.87-28.32.03-1.25.76-2.49.75-3.75s-.64-7.95-.9-8.83c-.71-2.45-3.81-2.12-5.85-2.02.41-.16.67-.63,1.5-.75Z"/>
  <path class="cls-53" d="M236.77,283.91c-2.13.57-2.53-.22-.75-1.5,1.64.2,2.53.05,3.78-1.1,9.09-8.33,14.07-20,18.72-31.09,8.02,3.52.27,15.14-2.69,20.15-3.61,6.11-10.62,18.7-19.06,13.54Z"/>
  <path class="cls-32" d="M136.27,251.73c.38,13.22,6.96,26.93,17.25,35.18.62.24.61.49,0,.75-9.86,4.59-16.84-11.83-19.52-19.07-2.22-6-6.04-14.37,2.27-16.86Z"/>
  <path class="cls-20" d="M228.52,284.66c2.55-1.31,3.66,3.2,2.25,5.24l-1.09,2.15c-4.55,2.84-24.22,12.55-29.12,9.2-.79-.54-1.13-1.45-1.29-2.37-2.2-.91-2.09-1.92,0-2.99.03-.25-.05-.51,0-.75.61-1.03,1.46-1.85,2.55-2.36,8.14-2.06,15.93-5.23,22.95-9.62.93.1,3.15.9,3.75,1.5Z"/>
  <path class="cls-5" d="M190.27,293.64c.58,1.05.63.86.75,2.25,1.19,5.89-.46,7.13-6.09,6.71-5.04-.38-22.09-4.85-24.04-9.44-.44-1.03-.33-1.44.13-2.51-1.83-1.49-.85-3.56,1.5-2.99.29-.31,1.82-1.33,2.25-1.5,4.39,1.28,8.71,2.85,12.98,4.7,4.3.63,8.47,1.56,12.52,2.78Z"/>
  <path class="cls-22" d="M191.02,295.89c.29.14.6.72.75.75,2.14.38,2.31,4.01,0,4.49-.41,1.63-3.88,5.44-5.8,5.85-3.57.77-21.78-4.68-24.59-7.33-1.75-1.65-2.32-4.45-1.86-6.75-.82-2.09-.96-2.73,1.5-2.25,2.78,5.57,13.37,8.45,19.35,9.51s11.35,3.44,10.65-4.27Z"/>
  <path class="cls-4" d="M230.77,289.9c.86,1.07.52,3.12,0,4.49-.26,1.57-.71,2.01-1.87,3-2.83,2.42-18.28,8.58-21.95,8.8-2.65.16-6.97-2.78-7.68-5.07-2.12-.72-2.02-1.42,0-2.25,2.54,2.47,7.31,1.18,10.52.4,7.52-1.84,14.01-6.29,20.98-9.38Z"/>
  <path class="cls-3" d="M32.77,166.39c-6.04,8.17-1.56,20.11-7.63,28.69-1.35,1.91-3.9,2.85-3.3.47s3.39-5.19,3.98-9.52c1.87-13.6-1.66-8.55-8.52-5.51-1.38.61-13.83,5.52-13.77,1.96.03-2.06,5.43-1.83,6.77-2.21,9.34-2.62,10.17-5.91,16.46-11.64.89-.81,3.76-2.39,5.25-3.74l.75,1.5Z"/>
  <path class="cls-41" d="M282.52,180.62c-1.87,1.83,6.36,8,6.62,8.73.82,2.31.33,4.9-2.52,4.69-3.31-.24-2.21-4.54-3.44-6.97-.55-1.09-3.69-4.03-4.8-4.94-2.33-1.9-6.49-2.48-5.55-5.58.62-2.06,5.42.78,7.14,1.01,3.17.41,6.2-.18,9.32-.34.89-.05,2.66-.73,2.99.79.73,3.39-9.37,2.24-9.74,2.61Z"/>
  <path class="cls-35" d="M256.27,200.83c1.14.32,2.89-1.04,3,1.1s.68,4.82.68,6.67c-.02,3.78-1.65,19.49-2.91,22.55-.98,2.4-2.59,1.26-3.77,3.35.6-7.91,2.29-15.67,2.99-23.59.29-3.23-.42-7.02,0-10.1Z"/>
  <path class="cls-29" d="M246.52,251.73c1.1.58,2.17.24,2.33,1.86.7,7.16-11.88,19.49-15.83,25.08-.01-.15-.8-.84-.82-1.84-.07-4.17,7.86-12.24,10.42-16.64,1.59-2.74,2.36-6,3.9-8.46Z"/>
  <path class="cls-10" d="M158.02,277.93c.02,1.17.54,3.13-1.51,1.88-4.83-2.92-15.02-20.17-9.74-25.84,1.61,2.76,2.2,7.63,3.61,10.99,2.01,4.78,6.46,8.96,7.64,12.96Z"/>
  <path class="cls-50" d="M224.77,283.17c-1.29,3.18-3.2,3.57-5.86,5-6.15,3.32-13.03,4.85-19.64,6.98,1.14-5.99,6.2-5.11,10.69-6.92s10.3-5.56,14.81-5.06Z"/>
  <path class="cls-18" d="M190.27,293.64c-8.44.92-18.65-2.33-25.5-7.49,4.54-1.82,9.75,1.73,14.41,3.21,3.77,1.19,8.97.46,11.09,4.28Z"/>
  <path class="cls-28" d="M223.27,149.93c-.37-.44-1.56-.6-1.5-1.49.99-.04,2,.03,3,0,11.8-.46,20.6-3.88,23.25-16.47,2.46,3.71-1.51,10.02-4.1,12.75-4.98,5.25-13.8,6.89-20.65,5.21Z"/>
  <path class="cls-25" d="M94.27,213.56c-1.64,2.25-6.13,2.69-8.6,2.21-4.23-.81-4.19-10.25-3.39-11.2.92-1.09,9.77,9.3,11.99,8.99Z"/>
  <path class="cls-16" d="M264.52,240.5c-.91.44-2.73.79-2.84.89-.33.29-2.55,6.62-3.16,8.09-1.2-.63-2.36-1.34-3.75-1.5l2.25-8.23c.18.09.51-.08.75,0,2.43.77,4.05,1.03,6.75.75Z"/>
  <path class="cls-7" d="M236.02,282.42c.11.08.03,1.06.75,1.5-.73,2.05-4.1,2.78-4.87,4.5-.9,2.01.41,4.44-1.13,5.98.16-.96.15-3.51,0-4.49-.18-1.15-1.55-4.54-2.25-5.24,1.72-1.54,4.14-2.09,4.5-4.49,1.01.72,2.03,1.48,3,2.25Z"/>
  <path class="cls-47" d="M162.52,287.66c-.93,1.02-1,1.96-1.5,2.99-.32.66-1.41,1.81-1.5,2.25.38-2.22-5.22-3.92-6-5.24-.04-.06-.03-.72,0-.75.37-.34,2.99-1.17,3.75-2.25l5.25,2.99Z"/>
  <path class="cls-39" d="M199.27,298.88c.07.7-.16,1.73,0,2.25h-7.5c.3-1.18-.21-3.15,0-4.49,2.07.37,5.58.17,7.5-.75-.1.85-.08,2.13,0,2.99Z"/>
  <path class="cls-40" d="M266.77,191.09c-.09.91-1.22,2.39-.75,3.74-.93-.12-2.84-.13-3.75,0-.75-.91-.52-2.04-.75-2.99l5.25-.75Z"/>
  <path class="cls-51" d="M60.52,71.33c-5.44,3.38-9.93,7.34-16.88,7.55-.9.03-4.61-.46-4.87-.82-2.02-2.8,6.94-2.18,7.81-2.3,2.31-.33,10.75-4.63,10.19-7.03-.17-.72-10.62-5.72-12.76-7.49-1.6-1.33-8.42-9.24-6.74-10.86,1.93-1.86,3.46,3.53,4.17,4.44,8.94,11.4,22.52,10.46,35.57,12.77-1.93-8.43-7.44-15.14-8.23-24.34-.38-4.39.68-17.29,3.08-20.86,1.05-1.57,2-1.27,2.18.64.19,2.02-2,7.64-2.26,10.51-.83,9.22,2.8,23.48,9.41,30.25,4.52,4.63,4.41-3.66,5.96-7.43,2.41-5.83,7.07-10.52,7.18-17.61.03-1.9-1.11-4.57-.73-5.85.67-2.26,2.92-1.14,2.92.62v12.35c3.63.13,8.39-1.85,11.19-4.18,2.21-1.84,4.87-7.39,5.69-7.79,2.02-1,.86,3.54.55,4.29-3.47,8.24-15.81,9.23-21.16,16.31-6.42,8.48-4.47,20.18,2.98,27.3,2.03,6,10.93,7.67,17.7,5.95,26.64-9.55,52.25-3.88,73.96,14.19l1.34.07c.25.25.5.5.75.75.24,1.15.55,2.29.92,3.42,11.57,18.61,13.6,43.11,5.03,63.73-2.33,5.61-5.75,13.52-11.2,15.94l.32,1.95c-10.45,11.63-24.11,19.7-40.07,21.26-1.1,2.84-5.68,1.69-4.41-1.6,5.24-4.96,5.63-9.66,3.17-16.28v-2.1c4.73-2.27,10.72-6.24,8.74-12.21-5.03-11.52-20.18,2.47-27.33,5.28-2.43-4.76-6.84-9.99-12.71-6.7-6.41,3.6.24,9.11.87,13.2.42,2.74-.37,3.73-.51,5.88-.08,1.19.76,2.3.54,3.49-.42,2.19-4.3,5.02-5.86,6.53-5.52.13-12.21-5.18-16.7-8.76-9.57-7.64-15.59-16.19-19.51-27.44-3.97-9.16-14.41-12.95-23.97-11.35-6.35,1.06-10.41,4.09-14.83,7.88.06,2.06-3.25,5.44-5.25,3.74.38-2.16,8.9-10.67,7.5-11.97-1.03-.96-14.37-.32-16.69.18s-12.08,5.54-12.55,5.06c-2.11-2.14,7.74-6.64,9.01-7.09,2-.71,5.07-1.46,7.19-1.81,2.25-.37,12.61-.35,13.05-.83,1.8-1.94-2.96-4.56-4.14-5.98-8.43-10.17-8.18-14.08-23.22-15.72-.94-.1-.74-2.78,1.47-3.02,4.31-.46,15.85,6.43,16.9,5.66,1.16-.86.91-7.92.67-9.69-.46-3.49-3.31-6.91-3.7-9.04-.28-1.52,1.05-1.47,1.87-1.11,4.55,1.99,4.99,19.82,6.4,24.68,2.54,17.16,31.79,18.93,38.24,3.14,2.91-9.5,6.78-18.52,11.61-27.04,6.51-6.96,10.81-13.17,9.85-22.92,0-.03-.2.16-.46.41-1-2.26-1.62-5.06-2.25-7.49-3.1-10.76-16.64-18.31-27-12.73Z"/>
  <path class="cls-46" d="M188.77,102.02c-1.22,2.4-1.01,1.11-2.24.37-19.15-11.49-28.29-19.22-52.87-17.58-12.26.82-26.98,10.42-36.75.74-.66-.65-2.79-2.92-1.13-3.74,10.06,9.61,16.73,3.26,27.58.96,23.92-5.07,48.17,2.25,65.42,19.25Z"/>
  <path class="cls-36" d="M30.52,137.95c1.03,3.58,2.52,5.73,5.65,8.21,9.91,7.89,26.99,5.36,32-6.94s5.25-17.91,13.79-30.4c5.16-7.56,7.14-6.67,7.81-17.28.03-.53-.24-2.32.75-1.11,1.74,6.83,1.14,11.6-3.01,17.19-3.5,4.71-6.86,7.68-9.86,13.36-5.56,10.52-5.55,25.79-17.35,30.59-6.62,2.69-19.33,1.74-24.91-3.12-1.69-1.48-7.39-8.18-4.86-10.49Z"/>
  <path class="cls-11" d="M87.52,84.05c-5.28-10.1-15.61-15.62-27-12.73.32-.2.61-1.15,1.68-1.66,7.5-3.55,16.51-.12,21.55,5.8,3.48,4.08,2.63,4.16,3.77,8.59Z"/>
  <path class="cls-12" d="M111.52,130.47c-.38-.37-8.54-.73-10.31-2.43-1.38-1.33-.82-3.72,1.09-4.2,1.24-.31,9.77,2.77,12.68,2.8,3.28.03,10.57-4.49,11.48-1.7,1.49,4.52-8.19,5.32-8.17,6.65,0,.48,3.94,3.21,2.82,8.81-1.51,7.51-11.12,7.22-12.42-.76-.71-4.38,3.19-8.82,2.84-9.16Z"/>
  <path class="cls-6" d="M113.58,94.68c3.67-.73,6.38,2.44,3.96,4.74-1.16,1.11-8.68,3.69-11.51,5.72-3.05,2.19-10.84,10.76-13.22,11.53-2.99.98-3.4-.94-2.69-3.45,1.59-5.64,17.76-17.42,23.47-18.55Z"/>
  <path class="cls-33" d="M160.06,127.62c9.74-2.18,10.27,15.28,1.35,15.49-7.1.16-9.02-13.77-1.35-15.49Z"/>
  <path class="cls-2" d="M138.36,153.13c2.81-.36,13.33-.58,14.32,2.52,1.82,5.67-6.41,2.07-8.61,1.84-3.59-.37-6.9.35-10.25,1.59-1.94.71-6.31,3.79-7.52,3.5-1.37-.33-2.58-2.25-1.68-3.67,1.43-2.25,10.89-5.41,13.74-5.77Z"/>
  <path class="cls-34" d="M158.57,111.18c4.35-.74,12.43.07,15.25,3.89,1.48,2.01.93,4.37-1.86,4.18-4.01-.28-5.97-5.73-13.74-3.18-2.4.79-7.17,6.44-8.37,1.89-.77-2.94,6.2-6.35,8.72-6.78Z"/>
  <path class="cls-49" d="M123.67,92.42c.75-1.32,6.79-3.17,7.38.25,1.04,6.02-10.01,4.39-7.38-.25Z"/>
  <path class="cls-15" d="M85.02,120.81c4.96-1.58,4.88,6.23.6,6.69s-2.76-6-.6-6.69Z"/>
  <path class="cls-52" d="M213.34.41c23.5-3.38,45.72,14.42,37.47,38.9-4.89,14.52-19.19,14.73-23.95,23.25-2.59,4.64-1.88,10.22-9.2,11.03-16.36,1.8-14.77-15.37-7.54-24.74,4.77-6.18,18.02-10.76,19.09-17.62,1.21-7.78-4.54-12.4-11.97-10.45-7.9,2.07-5.07,16.43-18.77,13.53-8.82-1.87-9.16-10.4-6.1-17.4,3.5-8,12.21-15.24,20.96-16.5Z"/>
  <path class="cls-8" d="M245.02,18.18c6.86,16.48-7.84,27.75-20.39,35.15-5.48,3.41-6.19,9.46-6.86,15.46-1.28.66-2.7.76-4.25.29-4.9-1.47-4.93-2.65-4.3-7.67,2.1-16.76,23.43-17.82,24.49-30.98.97-12.06-13.38-18.99-22.39-11.08-4.26,3.74-5.69,16.6-14.33,9.71-5.86-4.67.75-14.57,4.89-18.39,12.83-11.84,34.93-7.84,43.14,7.5Z"/>
  <path class="cls-43" d="M213.52,69.08c1.13-.32,2.89,1.03,3.01-1.1.89-15.86,7.35-14.72,17.6-22.87,8.84-7.03,13.4-15.37,10.89-26.93,5.68,10.6,3.72,22.04-5.64,29.92-5.74,4.84-13.45,6.12-17,13.72-2.25,4.82-.92,9.64-8.86,7.25Z"/>
  <path class="cls-21" d="M215.77,6.96c.1.11.11,2.66-.09,2.91-.25.3-5.37,1.39-7.36,2.75-2.47,1.68-6.37,7.58-7.52,8.21-1.01.55-2.08.02-2.28-.79-.87-3.56,8.82-11.81,11.97-12.74.98-.29,4.99-.65,5.29-.34Z"/>
</svg>