<?xml version="1.0" standalone="no"?>
<!DOCTYPE svg PUBLIC "-//W3C//DTD SVG 20010904//EN"
 "http://www.w3.org/TR/2001/REC-SVG-20010904/DTD/svg10.dtd">
<svg version="1.0" xmlns="http://www.w3.org/2000/svg"
 width="512.000000pt" height="512.000000pt" viewBox="0 0 512.000000 512.000000"
 preserveAspectRatio="xMidYMid meet">

<g transform="translate(0.000000,512.000000) scale(0.100000,-0.100000)"
fill="#000000" stroke="none">
<path d="M3365 4616 c-111 -35 -185 -97 -236 -198 -57 -112 -41 -191 48 -230
82 -36 147 -10 187 76 32 68 55 87 112 94 85 9 134 -35 134 -119 0 -57 -27
-91 -126 -156 -46 -30 -100 -73 -119 -96 -74 -86 -99 -227 -50 -286 68 -80
216 -57 240 38 17 67 38 92 121 143 150 92 212 168 235 292 36 196 -105 398
-312 445 -60 14 -185 12 -234 -3z m275 -65 c71 -27 148 -94 185 -162 23 -44
30 -69 33 -137 4 -77 2 -87 -27 -146 -36 -74 -81 -117 -177 -174 -89 -52 -122
-88 -144 -154 -12 -39 -24 -57 -44 -66 -34 -17 -87 -8 -111 18 -24 27 -16 102
20 175 23 47 39 65 103 108 42 29 98 72 124 97 41 38 50 54 60 101 11 52 10
60 -13 105 -71 143 -263 130 -329 -23 -33 -75 -93 -91 -147 -41 -31 28 -30 75
2 143 42 87 127 154 225 176 57 13 180 3 240 -20z"/>
<path d="M1488 4380 c-50 -38 -83 -257 -58 -382 6 -35 27 -96 45 -136 l34 -73
-32 6 c-18 3 -61 9 -97 15 -93 14 -187 64 -227 120 -51 71 -61 80 -91 80 -64
0 -80 -67 -34 -141 36 -56 123 -134 168 -151 19 -6 34 -15 34 -19 0 -13 -63
-29 -116 -29 -79 0 -108 -33 -84 -94 6 -18 21 -28 51 -36 64 -18 130 -3 236
51 99 51 134 58 194 37 91 -30 157 -106 179 -202 15 -68 0 -111 -69 -195 -74
-91 -153 -242 -181 -346 -29 -104 -53 -146 -102 -178 -71 -46 -165 -47 -243
-4 -71 40 -105 112 -105 223 0 77 -21 149 -60 202 -25 35 -36 42 -64 42 -38 0
-66 -25 -66 -61 0 -13 11 -46 25 -73 14 -27 25 -64 25 -83 l0 -33 -37 19
c-110 55 -223 41 -223 -29 0 -43 22 -62 80 -71 85 -13 139 -47 193 -119 51
-68 50 -79 -8 -80 -70 -1 -186 -44 -246 -91 -31 -24 -39 -37 -39 -63 0 -67 61
-85 130 -40 22 15 66 33 97 40 60 14 123 18 123 8 0 -10 -62 -98 -94 -133 -36
-39 -138 -91 -179 -91 -41 0 -86 -27 -93 -56 -10 -39 24 -78 70 -82 41 -4 131
20 188 49 l38 19 0 -27 c0 -16 -13 -57 -29 -92 -16 -36 -27 -72 -24 -80 19
-52 77 -67 114 -30 43 43 71 128 78 234 10 135 40 193 126 238 89 47 239 17
284 -57 27 -43 93 -224 94 -256 0 -14 -12 -65 -27 -115 -49 -164 -35 -306 41
-395 100 -117 281 -121 457 -10 l62 39 58 -21 c98 -36 161 -131 188 -282 9
-49 8 -64 -6 -93 -9 -18 -16 -50 -16 -69 0 -83 98 -304 171 -388 44 -49 104
-78 147 -70 34 7 62 -16 62 -49 0 -38 37 -85 87 -111 60 -30 201 -73 269 -82
57 -7 117 14 135 47 14 27 54 24 96 -8 31 -24 46 -28 92 -27 96 3 322 98 356
151 9 13 19 41 22 61 8 55 26 70 76 65 32 -3 51 2 79 19 55 34 138 145 201
269 61 117 68 153 42 215 -19 46 -10 79 25 94 56 23 80 61 100 161 23 112 42
345 33 403 -7 51 -24 84 -57 115 -21 20 -26 33 -26 75 0 75 9 82 56 48 50 -36
65 -55 68 -84 5 -46 18 -69 46 -83 36 -19 54 -19 89 0 40 20 57 66 41 105 -7
17 -21 35 -31 41 -27 14 -23 23 16 38 61 22 71 83 20 117 -21 14 -34 15 -78 6
-47 -9 -129 -3 -143 11 -10 10 69 44 141 61 52 12 79 14 104 7 67 -20 131 30
131 102 0 31 -7 46 -34 73 -22 22 -44 34 -60 34 -32 0 -82 -24 -94 -46 -5 -9
-39 -21 -83 -30 -82 -17 -166 -52 -216 -90 l-33 -25 -60 53 -59 53 32 3 c92 8
175 25 230 48 72 30 180 105 203 140 9 13 23 24 31 24 27 0 69 29 81 55 35 77
-12 154 -95 155 -54 0 -103 -44 -103 -95 0 -25 -9 -40 -40 -68 -79 -72 -183
-107 -317 -107 l-83 0 58 73 c32 39 80 108 107 152 26 44 73 104 102 133 46
44 61 52 92 52 94 0 133 126 58 189 -47 39 -138 15 -162 -42 -7 -18 -38 -53
-67 -79 -30 -25 -74 -76 -99 -112 -24 -36 -47 -66 -51 -66 -5 0 -8 15 -8 33 0
19 -6 55 -14 81 -10 34 -11 54 -4 74 24 64 -46 141 -118 128 -41 -8 -84 -57
-84 -97 0 -34 25 -89 41 -89 20 0 41 -75 42 -150 2 -86 -24 -152 -74 -195 -43
-35 -130 -59 -187 -50 -117 17 -160 59 -202 194 -125 406 -478 678 -906 698
-136 7 -208 -3 -361 -48 -90 -27 -107 -29 -139 -19 -117 39 -186 195 -135 305
24 52 48 73 146 124 93 49 118 70 152 128 43 73 25 143 -36 143 -37 0 -51 -12
-75 -62 -15 -30 -34 -50 -63 -66 l-43 -23 0 56 c0 108 -62 162 -118 102 -19
-20 -21 -33 -19 -100 2 -74 0 -80 -48 -176 -27 -55 -53 -100 -56 -100 -4 -1
-24 34 -45 76 -33 68 -39 89 -42 163 -3 57 1 105 12 146 22 86 21 109 -10 133
-33 26 -45 26 -76 1z m38 -118 c-36 -160 -15 -277 79 -427 54 -86 74 -94 87
-30 5 22 32 87 61 144 48 97 52 109 52 177 0 40 4 76 8 80 16 17 27 -23 27
-103 0 -79 1 -83 23 -83 46 1 131 55 165 106 38 56 52 65 52 34 0 -56 -73
-126 -184 -175 -70 -31 -130 -99 -146 -167 -27 -109 6 -208 95 -286 75 -66
139 -72 275 -26 64 22 203 44 281 44 85 0 215 -23 304 -53 285 -97 497 -315
591 -606 42 -128 72 -169 151 -208 47 -23 71 -27 133 -27 206 -1 321 157 276
374 -13 61 -21 80 -46 100 -35 29 -40 68 -10 95 41 37 100 -7 80 -60 -8 -20
-6 -41 7 -83 9 -31 17 -95 18 -142 1 -77 3 -85 20 -85 12 0 34 21 57 55 95
137 126 176 174 212 35 26 54 48 57 68 11 55 86 65 109 15 17 -37 -12 -75 -56
-75 -65 0 -130 -63 -238 -230 -48 -73 -99 -138 -141 -177 -37 -34 -67 -66 -67
-72 0 -16 33 -23 131 -28 124 -7 222 10 309 53 83 42 150 110 150 153 0 37 23
61 60 61 30 0 50 -22 50 -56 0 -24 -29 -54 -53 -54 -11 0 -46 -26 -77 -58 -98
-99 -205 -140 -383 -149 -142 -7 -154 -17 -86 -72 24 -20 67 -58 96 -84 l51
-48 -20 -35 -20 -34 -28 38 c-46 63 -121 123 -210 166 -82 40 -88 41 -185 41
-89 0 -106 -3 -158 -28 -65 -32 -109 -87 -129 -160 -11 -41 -14 -44 -34 -37
-16 6 -26 5 -34 -5 -16 -20 -8 -29 64 -69 76 -43 159 -115 193 -169 34 -54 42
-140 18 -191 -37 -77 -117 -116 -325 -159 l-105 -22 -14 -43 c-9 -30 -21 -46
-38 -53 -32 -12 -27 -43 8 -47 14 -2 31 4 39 12 17 22 40 20 40 -3 0 -49 -97
-68 -157 -31 -64 39 -81 128 -35 189 26 37 104 77 176 91 110 22 219 51 248
66 70 36 85 85 44 145 -39 58 -188 148 -222 135 -21 -8 -17 -33 8 -50 l22 -15
-37 -54 c-20 -29 -74 -89 -119 -133 -120 -117 -220 -180 -367 -234 -108 -40
-177 -129 -207 -269 -7 -36 -14 -69 -14 -72 0 -4 -18 -7 -41 -7 -22 -1 -53 -3
-68 -7 -27 -6 -28 -5 -49 81 -35 141 -97 227 -191 263 l-40 16 69 71 c63 65
75 72 127 83 83 16 140 48 170 92 23 35 25 45 19 101 -4 35 -10 73 -13 85 -4
18 2 25 29 36 18 8 48 26 66 41 39 34 43 78 10 113 -41 44 -107 27 -269 -68
-67 -39 -72 -40 -82 -23 -6 11 -25 34 -43 52 -41 41 -93 44 -129 7 -31 -31
-31 -56 0 -109 21 -35 24 -54 23 -116 -1 -69 -3 -76 -37 -113 -47 -52 -145
-127 -166 -127 -9 0 -60 43 -112 96 -54 53 -102 93 -109 90 -18 -7 -37 -81
-38 -151 -2 -209 193 -201 421 19 l96 92 -2 89 c-1 67 -7 101 -22 133 -46 95
27 97 79 2 10 -19 25 -36 33 -38 8 -1 68 28 134 64 127 71 190 88 190 51 0
-13 -26 -34 -80 -66 -55 -32 -81 -53 -83 -68 -2 -16 3 -22 20 -25 18 -2 23
-10 25 -33 1 -16 5 -42 8 -56 14 -53 -81 -119 -172 -119 -28 0 -49 -15 -145
-105 -86 -81 -132 -115 -202 -152 -88 -46 -94 -48 -178 -48 -80 0 -89 2 -130
30 -23 17 -54 51 -68 75 -23 41 -25 56 -25 155 1 97 5 121 32 200 l31 90 -25
59 c-14 33 -33 87 -44 120 -25 80 -50 119 -99 155 -106 76 -276 62 -369 -30
-50 -50 -72 -108 -82 -220 -8 -97 -35 -185 -65 -210 -28 -23 -30 2 -5 53 28
58 42 181 22 201 -7 7 -34 -1 -96 -32 -63 -32 -98 -44 -135 -45 -71 -2 -64 16
14 37 81 21 114 37 162 79 44 39 176 216 170 227 -9 15 -110 21 -181 11 -42
-6 -95 -23 -133 -42 -34 -17 -65 -28 -68 -25 -29 28 115 102 229 117 43 5 96
10 118 10 31 0 39 4 39 18 0 9 -9 23 -19 29 -11 7 -44 45 -74 85 -29 40 -72
86 -94 101 -43 30 -120 57 -160 57 -18 0 -24 5 -21 18 6 27 81 17 167 -24 47
-22 78 -31 84 -25 18 18 3 153 -23 203 -24 48 -23 65 3 55 30 -11 59 -100 68
-203 9 -120 33 -178 92 -230 84 -71 220 -82 321 -25 67 37 100 87 131 196 36
123 84 219 161 322 88 117 98 137 97 209 -1 118 -75 230 -184 279 -91 40 -161
34 -256 -23 -75 -45 -161 -70 -207 -58 -47 12 -23 31 49 38 52 5 78 14 109 35
62 44 59 63 -16 98 -35 17 -82 48 -106 70 -40 36 -82 100 -82 125 0 19 29 10
35 -11 10 -30 63 -88 108 -116 57 -36 108 -52 222 -69 55 -8 115 -17 133 -21
42 -7 42 8 -2 95 -48 95 -76 194 -76 266 0 122 37 273 61 249 8 -8 6 -31 -5
-81z m3022 -1728 c31 -22 30 -69 -3 -90 -21 -14 -30 -14 -55 -4 -24 10 -43 9
-107 -5 -185 -41 -254 -115 -271 -293 -7 -66 -8 -67 -37 -70 -29 -3 -32 1 -54
53 -14 33 -37 67 -58 84 -38 32 -113 57 -138 47 -28 -10 -57 12 -53 42 4 32
40 42 67 18 10 -9 42 -23 72 -32 35 -11 66 -29 91 -53 20 -21 41 -35 47 -32 5
3 14 24 20 46 35 130 136 204 324 236 37 6 67 15 67 20 0 14 38 49 53 49 7 0
23 -7 35 -16z m-853 -49 c79 -21 148 -60 209 -118 42 -39 46 -47 26 -42 -14 4
-41 18 -61 31 -47 32 -89 31 -123 -2 -33 -34 -35 -83 -3 -120 20 -22 32 -27
86 -29 52 -2 69 -8 99 -32 20 -17 43 -47 51 -67 14 -36 13 -38 -18 -70 -40
-41 -50 -84 -51 -201 0 -49 -8 -130 -17 -180 -24 -131 -23 -183 5 -223 26 -35
23 -62 -5 -62 -44 0 -82 -39 -128 -132 -26 -51 -65 -117 -88 -147 -70 -89 -77
-103 -77 -155 0 -42 -2 -47 -17 -41 -52 19 -73 16 -160 -23 -48 -22 -113 -48
-144 -57 -55 -15 -91 -40 -116 -81 -12 -18 -13 -18 -23 -1 -24 39 -57 57 -129
73 -42 9 -103 28 -136 41 -44 19 -72 24 -106 21 l-47 -5 -5 45 c-3 24 -14 56
-26 71 -44 54 -82 128 -105 203 -13 43 -33 89 -44 102 -16 22 -18 33 -10 88 9
73 54 171 95 209 15 15 69 43 118 63 50 20 96 39 103 43 8 4 12 -7 12 -35 0
-93 63 -167 156 -185 113 -21 211 90 139 158 -18 16 -22 25 -14 30 6 4 61 18
121 31 60 12 132 34 161 47 222 101 225 336 6 500 -38 28 -69 59 -69 68 0 30
30 103 53 127 62 66 165 87 282 57z m657 -220 c49 -1 88 -4 89 -8 2 -21 -12
-29 -64 -34 -36 -4 -57 -10 -57 -18 0 -7 21 -34 46 -60 47 -49 54 -79 22 -98
-22 -15 -48 8 -48 42 0 14 -9 39 -19 54 -17 26 -98 91 -124 100 -6 2 -8 11 -4
21 6 15 13 17 40 10 17 -5 71 -9 119 -9z m-1001 -253 c34 -38 33 -48 -2 -74
-22 -16 -229 -70 -238 -62 -2 2 14 23 37 48 22 24 57 69 77 100 l38 56 29 -18
c17 -9 43 -32 59 -50z m817 -17 c24 -29 24 -30 19 -190 -5 -164 -27 -313 -53
-352 -8 -12 -31 -27 -51 -33 -33 -10 -41 -19 -58 -64 l-21 -51 24 -35 c17 -25
22 -44 19 -67 -12 -71 -120 -257 -194 -335 -41 -42 -70 -52 -108 -38 -23 9
-32 6 -66 -21 -33 -26 -39 -37 -39 -68 0 -20 -7 -47 -16 -59 -20 -29 -111 -75
-224 -113 -101 -33 -128 -32 -164 12 -22 25 -31 29 -78 29 -48 0 -54 -3 -70
-30 -28 -49 -57 -56 -146 -36 -109 26 -229 74 -247 99 -8 12 -15 38 -15 58 0
31 -6 40 -37 62 -31 21 -45 25 -80 20 -31 -4 -50 -1 -68 11 -56 36 -153 220
-185 349 -22 83 24 140 112 140 69 0 89 -24 122 -144 9 -32 40 -94 71 -140 57
-86 62 -101 46 -142 -8 -21 -5 -28 21 -47 29 -22 32 -22 58 -6 37 21 58 20
117 -5 26 -11 83 -29 126 -39 85 -20 104 -31 118 -68 8 -20 14 -23 56 -20 40
2 49 7 51 24 5 32 41 60 97 73 28 7 87 30 132 52 94 44 94 44 134 24 27 -15
31 -14 59 7 28 20 30 25 25 67 -6 50 -4 55 72 152 23 30 58 88 78 129 48 97
70 120 111 120 30 0 34 4 49 51 17 51 17 51 -7 77 -37 40 -39 53 -18 159 10
54 22 159 26 233 7 131 8 135 36 164 27 26 33 28 85 24 46 -4 61 -10 81 -33z
m-2464 -133 c22 -20 57 -49 76 -64 l34 -27 -29 -11 c-50 -19 -105 -17 -121 5
-14 19 -20 135 -8 135 4 0 25 -17 48 -38z"/>
<path d="M2630 3135 c-41 -19 -80 -53 -80 -71 0 -6 7 -17 15 -24 13 -10 19
-10 33 2 60 53 134 61 207 22 26 -14 54 -23 61 -20 28 11 14 45 -27 73 -52 34
-153 43 -209 18z"/>
<path d="M1901 2967 c-26 -32 3 -52 107 -73 37 -7 38 -11 15 -37 -28 -30 -24
-109 6 -141 44 -47 111 -31 131 30 15 44 7 91 -21 120 l-20 21 38 6 c63 10
108 68 67 84 -9 3 -28 -1 -43 -9 -44 -25 -89 -29 -167 -12 -41 8 -81 17 -88
20 -7 3 -18 -1 -25 -9z"/>
<path d="M2655 2906 c-43 -43 -45 -98 -4 -149 33 -43 99 -36 124 14 51 98 -47
208 -120 135z"/>
<path d="M2338 2571 c-67 -22 -128 -58 -128 -76 0 -7 7 -18 15 -25 11 -9 27
-5 82 22 61 30 75 33 148 31 44 -1 91 -3 105 -5 21 -2 25 1 25 22 0 20 -8 28
-35 37 -51 17 -147 15 -212 -6z"/>
<path d="M3315 3586 c-56 -26 -95 -85 -95 -145 0 -15 10 -47 23 -71 57 -108
215 -108 269 0 36 72 15 152 -53 203 -34 25 -105 31 -144 13z m100 -50 c70
-30 83 -120 24 -170 -35 -30 -67 -33 -109 -11 -30 16 -60 61 -60 90 0 31 32
77 63 90 40 18 41 18 82 1z"/>
</g>
</svg>
